<?xml version="1.0" encoding="UTF-8" standalone="no"?>
<!-- Created with Inkscape (http://www.inkscape.org/) -->

<svg
   width="31.229969mm"
   height="8.4747868mm"
   viewBox="0 0 31.22997 8.4747871"
   version="1.1"
   id="svg5"
   xml:space="preserve"
   inkscape:version="1.2.2 (b0a8486541, 2022-12-01)"
   sodipodi:docname="hopeflow_wordmark.svg"
   inkscape:export-filename="drawing.png"
   inkscape:export-xdpi="96"
   inkscape:export-ydpi="96"
   xmlns:inkscape="http://www.inkscape.org/namespaces/inkscape"
   xmlns:sodipodi="http://sodipodi.sourceforge.net/DTD/sodipodi-0.dtd"
   xmlns="http://www.w3.org/2000/svg"
   xmlns:svg="http://www.w3.org/2000/svg"><sodipodi:namedview
     id="namedview7"
     pagecolor="#ffffff"
     bordercolor="#000000"
     borderopacity="0.25"
     inkscape:showpageshadow="2"
     inkscape:pageopacity="0.0"
     inkscape:pagecheckerboard="0"
     inkscape:deskcolor="#d1d1d1"
     inkscape:document-units="mm"
     showgrid="false"
     inkscape:zoom="4"
     inkscape:cx="39.75"
     inkscape:cy="57.25"
     inkscape:window-width="1600"
     inkscape:window-height="868"
     inkscape:window-x="0"
     inkscape:window-y="0"
     inkscape:window-maximized="1"
     inkscape:current-layer="layer1" /><defs
     id="defs2" /><g
     inkscape:label="Layer 1"
     inkscape:groupmode="layer"
     id="layer1"
     transform="translate(12.908045,10.812703)"><g
       id="g1550"
       inkscape:export-filename="./g1550.png"
       inkscape:export-xdpi="600"
       inkscape:export-ydpi="600"><path
         style="fill:#008000;fill-opacity:1;stroke-width:0.0587653"
         d="m 13.940344,-4.057384 c -0.156377,-0.422875 -0.957468,-3.4119357 -0.932124,-3.4779787 0.01847,-0.04815 0.08199,-0.102897 0.141135,-0.121669 0.113572,-0.03604 0.814846,0.06827 0.917564,0.136495 0.03319,0.02203 0.14681,0.381916 0.25249,0.799719 0.180067,0.711887 0.285842,1.057513 0.294481,0.962226 0.002,-0.0226 0.05826,-0.323674 0.124908,-0.669051 0.134738,-0.698196 0.258457,-1.057455 0.380256,-1.104193 0.04452,-0.01708 0.321134,-0.02574 0.614692,-0.01924 0.400435,0.0089 0.547868,0.03385 0.590299,0.09999 0.08989,0.140104 0.180554,0.510884 0.287375,1.175304 0.05844,0.363477 0.11366,0.568739 0.134382,0.499505 0.01935,-0.06464 0.133028,-0.491052 0.252618,-0.947577 l 0.217439,-0.830046 0.551984,-0.01028 c 0.418068,-0.0078 0.55249,0.0082 0.554076,0.0661 0.0011,0.04201 -0.217014,0.849573 -0.484815,1.794579 l -0.486905,1.7181877 -0.595968,6.68e-4 -0.595967,6.68e-4 -0.09483,-0.426049 c -0.244098,-1.0966627 -0.402647,-1.7532487 -0.419336,-1.7365597 -0.01004,0.01006 -0.131028,0.500749 -0.268836,1.0904417 l -0.250561,1.072167 h -0.578595 c -0.409213,0 -0.586548,-0.0215 -0.60576,-0.07346 z"
         id="path4505-6-5-7" /><path
         style="fill:#008000;fill-opacity:1;stroke:none;stroke-width:0.0685807"
         d="m -12.908045,-7.1413852 v 2.8132342 c 0,0.189379 0.15746,0.342904 0.351697,0.342904 h 0.703391 c 0.194234,0 0.351696,-0.153525 0.351696,-0.342904 v -1.3103914 c 0,-0.1227252 -0.06727,-0.2360958 -0.17639,-0.2972697 l -0.771793,-0.4326826 c -0.283706,-0.1590591 -0.458601,-0.4538121 -0.458601,-0.7728905 z"
         id="path5384-9-5" /><path
         id="path5346-4-54-9"
         style="fill:#008000;fill-opacity:1;stroke:none;stroke-width:0.248835;stroke-linecap:round;stroke-linejoin:bevel;stroke-dasharray:none;stroke-opacity:1"
         d="m -2.0292323,-7.6204467 c -1.926972,0 -1.8960608,1.609698 -1.8960608,2.293404 v 1.7600987 h 0.0026 v 0.886414 c 0,0.189375 0.15768,0.342614 0.351917,0.342614 h 0.703316 c 0.194233,0 0.351916,-0.153239 0.351916,-0.342614 7.47e-4,-0.561058 -0.002,-0.733907 -5.16e-4,-1.227478 0.0018,-0.04964 0.0024,-0.0975 0.0031,-0.144178 0.1574744,0.04405 0.3201733,0.06665 0.483692,0.06718 1.0039535,-9e-6 1.81773633,-0.814023 1.81746003,-1.8179767 -9.11e-6,-1.0037517 -0.81370833,-1.8174509 -1.81746003,-1.81746 z m 0,0.414445 c 0.2862562,1.363e-4 0.5182921,0.6282303 0.518314,1.403015 8.36e-5,0.7749867 -0.2319832,1.4033957 -0.518314,1.4035317 -0.2159969,-1.08e-4 -0.409334,-0.362692 -0.485242,-0.9100217 v -0.986503 c 0.075908,-0.5473295 0.269245,-0.9099136 0.485242,-0.910022 z"
         sodipodi:nodetypes="ccccsssccccccccccccc" /><path
         id="path5382-3-3"
         style="fill:#008000;fill-opacity:1;stroke:none;stroke-width:0.0685807"
         d="m 1.8333814,-10.812406 c -0.3193458,0.0054 -0.6768643,0.08198 -0.92707514,0.204121 -0.16604568,0.08106 -0.26090748,0.08235 -0.56223959,0.0077 -0.3242203,-0.08025 -0.86398668,-0.154903 -1.32395024,-0.182934 -0.64531723,-0.03933 -1.27108363,-0.0059 -2.00556233,0.10697 -0.3360543,0.05164 -0.8893126,0.179809 -1.2536702,0.290938 -1.4469976,0.4413208 -2.9198503,1.2976824 -3.6638591,2.310972 -0.1286939,0.1752724 -0.3029391,0.3825442 -0.4330485,0.5772257 v -1.0826212 c 0,-0.4923883 -0.4091421,-0.8919352 -0.9141561,-0.8919352 h -0.7741122 c -0.03885,0 -0.07028,0.030854 -0.07028,0.06873 v 1.0976074 c 0,0.4923882 0.4096587,0.8914185 0.9146722,0.8914185 0.3737888,0 0.6564826,0.3827239 0.778247,0.5818766 l 0.043408,0.081132 0.00155,-0.00258 c 0.013049,0.023982 0.020671,0.038757 0.020671,0.038757 -0.00221,-0.020388 -0.00503,-0.040566 -0.00775,-0.060978 l 0.096118,-0.1632975 c 0.077556,-0.1316064 0.3640099,-0.4817079 0.6645589,-0.8366414 0.6265893,-0.7399711 1.5637588,-1.2930084 2.517159,-1.7156576 1.4055086,-0.6230703 2.9311426,-0.8665463 4.87618823,-0.7787643 1.42157117,0.06416 2.41336067,0.3337083 3.24579667,0.8826339 0.2463834,0.1624707 0.4866778,0.349514 0.5622396,0.4371827 0.057227,0.066402 0.056018,0.066235 -0.070797,-0.012402 C 2.6992969,-9.4888212 1.941268,-9.7785164 1.1166293,-9.8910156 0.70597673,-9.9470405 0.61026477,-9.9513 0.61433441,-9.91427 c 0.007602,0.069401 0.11072928,0.3657948 0.16898194,0.4857585 0.22009775,0.4532768 0.68111755,0.8039615 1.28570965,0.9782348 0.1972566,0.056862 0.5190428,0.072349 1.1125935,0.053743 0.5478092,-0.017188 0.9944387,0.012747 1.2180135,0.081649 0.1081848,0.033339 0.1284328,0.030875 0.1240235,-0.015503 -0.00477,-0.049488 -0.1471469,-0.4149965 -0.2651001,-0.681095 -0.4531241,-1.0222223 -1.2931517,-1.7031303 -2.2117513,-1.7926553 -0.06786,-0.0066 -0.1397285,-0.0095 -0.2134237,-0.0083 z m -11.357963,1.6836178 c 0.4983745,0.4131957 1.0185167,1.070959 1.0941015,1.4468708 0.075585,0.3759117 0.00157,0.3324287 -0.028533,0.3969443 -0.2335504,-0.7431057 -0.717732,-1.4417715 -1.0655685,-1.8438151 z"
         sodipodi:nodetypes="sccsccscssssssccccccssssccsccscsccssczcc" /><path
         style="fill:#008000;fill-opacity:1;stroke:none;stroke-width:0.0685807"
         d="m -11.149566,-7.0713713 c -0.194234,0 -0.351695,-0.1535246 -0.351695,-0.3429034 v -1.7145172 c 0,-0.1893809 -0.157462,-0.3429039 -0.351696,-0.3429035 l -0.703391,1.7e-6 c -0.194238,4e-7 -0.351697,0.153523 -0.351697,0.342903 v 1.8516773 c 0,0.4923889 0.409394,0.8915491 0.914409,0.8915491 h 1.899157 c 0.1942337,0 0.3516947,0.1535246 0.3516947,0.3429035 v 1.7145168 c 0,0.189379 0.157461,0.342904 0.3516955,0.342904 h 0.703391 c 0.1942411,0 0.3516955,-0.153525 0.3516955,-0.342904 v -1.8516784 c 0,-0.4923887 -0.4093924,-0.8915489 -0.9144069,-0.8915489 z"
         id="path5136-7-5" /><path
         id="path5346-45-6"
         style="fill:#008000;fill-opacity:1;stroke:none;stroke-width:0.248835;stroke-linecap:round;stroke-linejoin:bevel;stroke-dasharray:none;stroke-opacity:1"
         d="m -6.0912313,-7.6202327 a 1.8174765,1.8174765 0 0 0 -1.817495,1.817496 1.8174765,1.8174765 0 0 0 1.817495,1.8174947 1.8174765,1.8174765 0 0 0 1.817495,-1.8174947 1.8174765,1.8174765 0 0 0 -1.817495,-1.817496 z m 0,0.414378 a 0.5184052,1.4031222 0 0 1 0.518427,1.403118 0.5184052,1.4031222 0 0 1 -0.518427,1.4031177 0.5184052,1.4031222 0 0 1 -0.518427,-1.4031177 0.5184052,1.4031222 0 0 1 0.518427,-1.403118 z" /><path
         id="path5346-3-2-2"
         style="fill:#008000;fill-opacity:1;stroke:none;stroke-width:0.248835;stroke-linecap:round;stroke-linejoin:bevel;stroke-dasharray:none;stroke-opacity:1"
         d="m 11.201964,-7.6189677 a 1.8174765,1.8174765 0 0 0 -1.8174953,1.817496 1.8174765,1.8174765 0 0 0 1.8174953,1.8174947 1.8174765,1.8174765 0 0 0 1.817495,-1.8174947 1.8174765,1.8174765 0 0 0 -1.817495,-1.817496 z m 0,0.414378 a 0.5184052,1.4031222 0 0 1 0.518427,1.403118 0.5184052,1.4031222 0 0 1 -0.518427,1.4031177 0.5184052,1.4031222 0 0 1 -0.518427,-1.4031177 0.5184052,1.4031222 0 0 1 0.518427,-1.403118 z" /><path
         id="path5346-4-5-7-1"
         style="fill:#008000;fill-opacity:1;stroke:none;stroke-width:0.248835;stroke-linecap:round;stroke-linejoin:bevel;stroke-dasharray:none;stroke-opacity:1"
         d="m 6.0990443,-9.5588297 c -1.1152709,0 -1.7735366,0.5477526 -1.7814306,2.293404 v 1.760099 h 0.0026 v 1.1787397 c 0,0.189374 0.15768,0.342614 0.351917,0.342614 h 0.703316 c 0.194233,0 0.351917,-0.15324 0.351917,-0.342614 7.47e-4,-0.561059 -0.002,-1.0262337 -5.17e-4,-1.5198037 0.0018,-0.04964 0.0024,-0.0975 0.0031,-0.144178 0.1822697,0.033928 0.3811919,0.06995 0.643889,0.05998 0.2626971,-0.00997 0.357711,-0.228365 0.282824,-0.318965 -0.7097038,0 -1.173974,-0.636456 -1.173974,-1.291835 0,-0.9162334 0.389494,-1.3999596 0.7538195,-1.3999596 0.3643256,0 -0.024752,0.9062038 0.6501177,0.8775141 0.6748701,-0.02869 0.3276923,-1.4949955 -0.7875786,-1.4949955 z"
         sodipodi:nodetypes="zcccsssccczcszzz" /><path
         id="path5384-9-6-2-8-0-4-2"
         style="fill:#008000;fill-opacity:1;stroke:none;stroke-width:0.0685807"
         d="m 7.8047327,-9.5588367 c -0.194233,0 -0.351691,0.153526 -0.351691,0.342903 -0.00483,1.5938047 0.00154,3.2239658 0.00154,4.8890527 0,0.189377 0.15756,0.342904 0.351797,0.342904 h 0.703381 c 0.194233,0 0.35169,-0.153527 0.35169,-0.342904 0.00487,-1.5934253 -0.00151,-3.2236638 -0.00151,-4.8890527 0,-0.189377 -0.157561,-0.342903 -0.351798,-0.342903 z"
         sodipodi:nodetypes="sccssccss" /><path
         id="path5346-6-3-1-4-7"
         style="fill:#008000;fill-opacity:1;stroke:none;stroke-width:0.248835;stroke-linecap:round;stroke-linejoin:bevel;stroke-dasharray:none;stroke-opacity:1"
         d="m 1.9094467,-7.6202327 c -1.00373697,4.9e-5 -1.81739797,0.813758 -1.81738797,1.817495 -1.1e-5,1.0037377 0.81365,1.8174467 1.81738797,1.8174957 1.0564019,0.015103 1.6033398,-0.4669198 1.765095,-1.3843657 H 2.4020487 C 2.3327587,-4.791718 2.0471166,-4.39962 1.9094467,-4.39962 1.6572927,-4.400086 1.4418347,-4.902279 1.3989487,-5.5748177 h 2.313634 c 0.0096,-0.0756 0.01436,-0.151723 0.01436,-0.227924 1e-5,-1.003779 -0.813716,-1.817505 -1.817495,-1.817495 z m 0,0.414377 c 0.262942,-2.5e-5 0.484247,0.532763 0.514891,1.239596 h -1.029353 c 0.03063,-0.706393 0.251683,-1.239033 0.514462,-1.239596 z"
         sodipodi:nodetypes="ccccccccccccccc" /></g></g></svg>
